<?xml version="1.0" encoding="UTF-8"?>
<svg width="32px" height="32px" viewBox="0 0 32 32" version="1.1" xmlns="http://www.w3.org/2000/svg" xmlns:xlink="http://www.w3.org/1999/xlink">
    <!-- Generator: Sketch 47.1 (45422) - http://www.bohemiancoding.com/sketch -->
    <title>navigation</title>
    <desc>Created with Sketch.</desc>
    <defs></defs>
    <g id="Stage" stroke="none" stroke-width="1" fill="none" fill-rule="evenodd">
        <g id="Artboard" transform="translate(-535.000000, -304.000000)" fill-rule="nonzero" fill="#FFFFFF">
            <path d="M542.116973,328.407291 C542.333468,328.915374 542.920855,329.151753 543.428938,328.935258 L553.841665,324.498378 C554.592982,324.178241 555.442342,324.178241 556.193658,324.498378 L566.606386,328.935258 C566.875761,329.050039 567.18191,329.04099 567.444035,328.910499 C567.938445,328.664373 568.139718,328.064051 567.893592,327.569642 L555.912869,303.503189 C555.815911,303.308423 555.658079,303.150591 555.463312,303.053633 C554.968903,302.807507 554.368581,303.00878 554.122455,303.503189 L542.141732,327.569642 C542.011241,327.831767 542.002192,328.137916 542.116973,328.407291 Z M552.332041,302.611888 C553.070419,301.12866 554.871386,300.524841 556.354614,301.263219 C556.938912,301.554093 557.412408,302.027589 557.703283,302.611888 L569.684006,326.678341 C570.422384,328.161568 569.818564,329.962535 568.335336,330.700913 C567.548959,331.092386 566.630514,331.119533 565.822388,330.775189 L555.409661,326.338309 C555.159222,326.231597 554.876102,326.231597 554.625663,326.338309 L544.212936,330.775189 C542.688687,331.424674 540.926527,330.715538 540.277042,329.191289 C539.932698,328.383163 539.959845,327.464718 540.351318,326.678341 L552.332041,302.611888 Z" id="navigation" transform="translate(555.017992, 315.982121) rotate(45.000000) translate(-555.017992, -315.982121) "></path>
        </g>
    </g>
</svg>